<mxfile host="app.diagrams.net" agent="Mozilla/5.0 (X11; Linux x86_64) AppleWebKit/537.36 (KHTML, like Gecko) Chrome/134.0.0.0 Safari/537.36" version="27.0.1">
  <diagram id="C5RBs43oDa-KdzZeNtuy" name="Page-1">
    <mxGraphModel dx="2073" dy="624" grid="1" gridSize="10" guides="1" tooltips="1" connect="1" arrows="1" fold="1" page="1" pageScale="1" pageWidth="827" pageHeight="1169" math="0" shadow="0">
      <root>
        <mxCell id="WIyWlLk6GJQsqaUBKTNV-0" />
        <mxCell id="WIyWlLk6GJQsqaUBKTNV-1" parent="WIyWlLk6GJQsqaUBKTNV-0" />
        <mxCell id="QhAMZW8vx8BIPs0i-Lc7-16" value="" style="edgeStyle=orthogonalEdgeStyle;rounded=0;orthogonalLoop=1;jettySize=auto;html=1;labelBackgroundColor=none;strokeColor=#457B9D;fontColor=default;entryX=0.5;entryY=0;entryDx=0;entryDy=0;" parent="WIyWlLk6GJQsqaUBKTNV-1" source="QhAMZW8vx8BIPs0i-Lc7-0" target="I90foCp7rMowlihPEcc8-3" edge="1">
          <mxGeometry relative="1" as="geometry">
            <mxPoint x="414" y="100" as="targetPoint" />
          </mxGeometry>
        </mxCell>
        <mxCell id="QhAMZW8vx8BIPs0i-Lc7-0" value="Start&lt;div&gt;ie. threading fra python script&lt;/div&gt;" style="html=1;dashed=0;whiteSpace=wrap;shape=mxgraph.dfd.start;rounded=0;labelBackgroundColor=none;fillColor=#A8DADC;strokeColor=#457B9D;fontColor=#1D3557;" parent="WIyWlLk6GJQsqaUBKTNV-1" vertex="1">
          <mxGeometry x="364" y="10" width="100" height="50" as="geometry" />
        </mxCell>
        <mxCell id="I90foCp7rMowlihPEcc8-38" style="edgeStyle=none;curved=1;rounded=0;orthogonalLoop=1;jettySize=auto;html=1;exitX=0.5;exitY=1;exitDx=0;exitDy=0;entryX=0.5;entryY=0;entryDx=0;entryDy=0;strokeColor=#457B9D;fontSize=12;fontColor=#1D3557;startSize=8;endSize=8;fillColor=#A8DADC;" parent="WIyWlLk6GJQsqaUBKTNV-1" source="QhAMZW8vx8BIPs0i-Lc7-23" target="I90foCp7rMowlihPEcc8-37" edge="1">
          <mxGeometry relative="1" as="geometry" />
        </mxCell>
        <mxCell id="QhAMZW8vx8BIPs0i-Lc7-23" value="Opdater hjemmeside&lt;br&gt;med antal affaldsstykker" style="verticalLabelPosition=bottom;verticalAlign=top;html=1;shape=process;whiteSpace=wrap;rounded=1;size=0.14;arcSize=6;align=center;spacingTop=-56;labelBackgroundColor=none;fillColor=#A8DADC;strokeColor=#457B9D;fontColor=#1D3557;" parent="WIyWlLk6GJQsqaUBKTNV-1" vertex="1">
          <mxGeometry x="-89.25" y="429.95" width="165" height="60" as="geometry" />
        </mxCell>
        <mxCell id="I90foCp7rMowlihPEcc8-17" value="" style="edgeStyle=none;curved=1;rounded=0;orthogonalLoop=1;jettySize=auto;html=1;fontSize=12;startSize=8;endSize=8;labelBackgroundColor=none;strokeColor=#457B9D;fontColor=default;" parent="WIyWlLk6GJQsqaUBKTNV-1" source="QhAMZW8vx8BIPs0i-Lc7-25" target="QhAMZW8vx8BIPs0i-Lc7-23" edge="1">
          <mxGeometry relative="1" as="geometry" />
        </mxCell>
        <mxCell id="QhAMZW8vx8BIPs0i-Lc7-25" value="Aflæs DB" style="shape=cylinder3;whiteSpace=wrap;html=1;boundedLbl=1;backgroundOutline=1;size=15;rounded=0;labelBackgroundColor=none;fillColor=#A8DADC;strokeColor=#457B9D;fontColor=#1D3557;" parent="WIyWlLk6GJQsqaUBKTNV-1" vertex="1">
          <mxGeometry x="-53.75" y="309.95" width="92.5" height="70" as="geometry" />
        </mxCell>
        <mxCell id="I90foCp7rMowlihPEcc8-3" value="Start hjemmeside&lt;br&gt;Flask/SocketIO" style="verticalLabelPosition=bottom;verticalAlign=top;html=1;shape=process;whiteSpace=wrap;rounded=1;size=0.14;arcSize=6;align=center;spacingTop=-50;labelBackgroundColor=none;fillColor=#A8DADC;strokeColor=#457B9D;fontColor=#1D3557;" parent="WIyWlLk6GJQsqaUBKTNV-1" vertex="1">
          <mxGeometry x="349" y="100" width="130" height="60" as="geometry" />
        </mxCell>
        <mxCell id="TRfHkV0xAQpSszj1zVbH-38" value="" style="edgeStyle=orthogonalEdgeStyle;rounded=0;orthogonalLoop=1;jettySize=auto;html=1;" edge="1" parent="WIyWlLk6GJQsqaUBKTNV-1" source="I90foCp7rMowlihPEcc8-28" target="TRfHkV0xAQpSszj1zVbH-33">
          <mxGeometry relative="1" as="geometry" />
        </mxCell>
        <mxCell id="I90foCp7rMowlihPEcc8-28" value="Opdater hjemmeside,&lt;div&gt;graf over beholderniveau&lt;/div&gt;" style="verticalLabelPosition=bottom;verticalAlign=top;html=1;shape=process;whiteSpace=wrap;rounded=1;size=0.14;arcSize=6;align=center;spacingTop=-56;labelBackgroundColor=none;fillColor=#A8DADC;strokeColor=#457B9D;fontColor=#1D3557;" parent="WIyWlLk6GJQsqaUBKTNV-1" vertex="1">
          <mxGeometry x="124.75" y="429.95" width="165" height="60" as="geometry" />
        </mxCell>
        <mxCell id="I90foCp7rMowlihPEcc8-34" value="Afvent opdatering på database" style="verticalLabelPosition=bottom;verticalAlign=top;html=1;shape=process;whiteSpace=wrap;rounded=1;size=0.14;arcSize=6;align=center;spacingTop=-50;strokeColor=#457B9D;dashed=1;dashPattern=1 4;labelBackgroundColor=none;fillColor=#A8DADC;fontColor=#1D3557;" parent="WIyWlLk6GJQsqaUBKTNV-1" vertex="1">
          <mxGeometry x="-90" y="649.95" width="165" height="60" as="geometry" />
        </mxCell>
        <mxCell id="TRfHkV0xAQpSszj1zVbH-25" value="" style="edgeStyle=orthogonalEdgeStyle;rounded=0;orthogonalLoop=1;jettySize=auto;html=1;" edge="1" parent="WIyWlLk6GJQsqaUBKTNV-1" source="I90foCp7rMowlihPEcc8-37" target="I90foCp7rMowlihPEcc8-34">
          <mxGeometry relative="1" as="geometry" />
        </mxCell>
        <mxCell id="I90foCp7rMowlihPEcc8-37" value="Opdater hjemmeside,&lt;div&gt;graf over sortering&lt;/div&gt;" style="verticalLabelPosition=bottom;verticalAlign=top;html=1;shape=process;whiteSpace=wrap;rounded=1;size=0.14;arcSize=6;align=center;spacingTop=-56;labelBackgroundColor=none;fillColor=#A8DADC;strokeColor=#457B9D;fontColor=#1D3557;" parent="WIyWlLk6GJQsqaUBKTNV-1" vertex="1">
          <mxGeometry x="-89.25" y="539.95" width="165" height="60" as="geometry" />
        </mxCell>
        <mxCell id="TRfHkV0xAQpSszj1zVbH-36" value="" style="edgeStyle=orthogonalEdgeStyle;rounded=0;orthogonalLoop=1;jettySize=auto;html=1;" edge="1" parent="WIyWlLk6GJQsqaUBKTNV-1" source="4EAk3vtJ96HyGKtx9xcT-3" target="TRfHkV0xAQpSszj1zVbH-11">
          <mxGeometry relative="1" as="geometry" />
        </mxCell>
        <mxCell id="4EAk3vtJ96HyGKtx9xcT-3" value="B" style="verticalLabelPosition=bottom;verticalAlign=top;html=1;shape=mxgraph.flowchart.on-page_reference;dashed=1;dashPattern=1 4;spacingTop=-32;spacingLeft=-2;labelBackgroundColor=none;fillColor=#A8DADC;strokeColor=#457B9D;fontColor=#1D3557;" parent="WIyWlLk6GJQsqaUBKTNV-1" vertex="1">
          <mxGeometry x="189.75" y="212.45000000000005" width="35" height="35" as="geometry" />
        </mxCell>
        <mxCell id="TRfHkV0xAQpSszj1zVbH-29" value="" style="edgeStyle=orthogonalEdgeStyle;rounded=0;orthogonalLoop=1;jettySize=auto;html=1;" edge="1" parent="WIyWlLk6GJQsqaUBKTNV-1" source="TRfHkV0xAQpSszj1zVbH-0" target="QhAMZW8vx8BIPs0i-Lc7-25">
          <mxGeometry relative="1" as="geometry" />
        </mxCell>
        <mxCell id="TRfHkV0xAQpSszj1zVbH-0" value="SocketIO On&lt;div&gt;&quot;DB opdateret&quot;&lt;/div&gt;" style="verticalLabelPosition=bottom;verticalAlign=top;html=1;shape=process;whiteSpace=wrap;rounded=1;size=0.14;arcSize=6;align=center;spacingTop=-50;labelBackgroundColor=none;fillColor=#A8DADC;strokeColor=#457B9D;fontColor=#1D3557;" vertex="1" parent="WIyWlLk6GJQsqaUBKTNV-1">
          <mxGeometry x="-71.75" y="199.95" width="130" height="60" as="geometry" />
        </mxCell>
        <mxCell id="TRfHkV0xAQpSszj1zVbH-37" value="" style="edgeStyle=orthogonalEdgeStyle;rounded=0;orthogonalLoop=1;jettySize=auto;html=1;" edge="1" parent="WIyWlLk6GJQsqaUBKTNV-1" source="TRfHkV0xAQpSszj1zVbH-11" target="I90foCp7rMowlihPEcc8-28">
          <mxGeometry relative="1" as="geometry" />
        </mxCell>
        <mxCell id="TRfHkV0xAQpSszj1zVbH-11" value="SocketIO On&lt;div&gt;&quot;Affaldsniveau&lt;/div&gt;&lt;div&gt;restaffald&quot;&lt;/div&gt;" style="verticalLabelPosition=bottom;verticalAlign=top;html=1;shape=process;whiteSpace=wrap;rounded=1;size=0.14;arcSize=6;align=center;spacingTop=-50;labelBackgroundColor=none;fillColor=#A8DADC;strokeColor=#457B9D;fontColor=#1D3557;" vertex="1" parent="WIyWlLk6GJQsqaUBKTNV-1">
          <mxGeometry x="142.25" y="309.95" width="130" height="60" as="geometry" />
        </mxCell>
        <mxCell id="TRfHkV0xAQpSszj1zVbH-30" style="edgeStyle=orthogonalEdgeStyle;rounded=0;orthogonalLoop=1;jettySize=auto;html=1;exitX=0;exitY=1;exitDx=0;exitDy=0;entryX=0.5;entryY=0;entryDx=0;entryDy=0;entryPerimeter=0;" edge="1" parent="WIyWlLk6GJQsqaUBKTNV-1" source="I90foCp7rMowlihPEcc8-3" target="QhAMZW8vx8BIPs0i-Lc7-25">
          <mxGeometry relative="1" as="geometry">
            <Array as="points">
              <mxPoint x="80" y="160" />
              <mxPoint x="80" y="300" />
              <mxPoint x="-7" y="300" />
            </Array>
          </mxGeometry>
        </mxCell>
        <mxCell id="TRfHkV0xAQpSszj1zVbH-31" value="" style="edgeStyle=orthogonalEdgeStyle;rounded=0;orthogonalLoop=1;jettySize=auto;html=1;exitX=0.5;exitY=1;exitDx=0;exitDy=0;entryX=0.5;entryY=0;entryDx=0;entryDy=0;entryPerimeter=0;" edge="1" parent="WIyWlLk6GJQsqaUBKTNV-1" source="I90foCp7rMowlihPEcc8-34" target="4EAk3vtJ96HyGKtx9xcT-1">
          <mxGeometry relative="1" as="geometry">
            <mxPoint x="173" y="709.95" as="sourcePoint" />
            <mxPoint x="190" y="109.95" as="targetPoint" />
            <Array as="points">
              <mxPoint x="-7" y="730" />
              <mxPoint x="-110" y="730" />
              <mxPoint x="-110" y="100" />
              <mxPoint x="-7" y="100" />
            </Array>
          </mxGeometry>
        </mxCell>
        <mxCell id="TRfHkV0xAQpSszj1zVbH-32" value="" style="edgeStyle=orthogonalEdgeStyle;rounded=0;orthogonalLoop=1;jettySize=auto;html=1;" edge="1" parent="WIyWlLk6GJQsqaUBKTNV-1" source="4EAk3vtJ96HyGKtx9xcT-1" target="TRfHkV0xAQpSszj1zVbH-0">
          <mxGeometry relative="1" as="geometry" />
        </mxCell>
        <mxCell id="4EAk3vtJ96HyGKtx9xcT-1" value="A" style="verticalLabelPosition=bottom;verticalAlign=top;html=1;shape=mxgraph.flowchart.on-page_reference;dashed=1;dashPattern=1 4;spacingTop=-32;spacingLeft=-2;labelBackgroundColor=none;fillColor=#A8DADC;strokeColor=#457B9D;fontColor=#1D3557;" parent="WIyWlLk6GJQsqaUBKTNV-1" vertex="1">
          <mxGeometry x="-24.25" y="114.94999999999999" width="35" height="35" as="geometry" />
        </mxCell>
        <mxCell id="TRfHkV0xAQpSszj1zVbH-33" value="Afvent SocketIO On" style="verticalLabelPosition=bottom;verticalAlign=top;html=1;shape=process;whiteSpace=wrap;rounded=1;size=0.14;arcSize=6;align=center;spacingTop=-43;strokeColor=#457B9D;dashed=1;dashPattern=1 4;labelBackgroundColor=none;fillColor=#A8DADC;fontColor=#1D3557;" vertex="1" parent="WIyWlLk6GJQsqaUBKTNV-1">
          <mxGeometry x="124.75" y="539.95" width="165" height="60" as="geometry" />
        </mxCell>
        <mxCell id="TRfHkV0xAQpSszj1zVbH-39" style="edgeStyle=orthogonalEdgeStyle;rounded=0;orthogonalLoop=1;jettySize=auto;html=1;exitX=0.5;exitY=1;exitDx=0;exitDy=0;entryX=0.5;entryY=0;entryDx=0;entryDy=0;entryPerimeter=0;" edge="1" parent="WIyWlLk6GJQsqaUBKTNV-1" source="TRfHkV0xAQpSszj1zVbH-33" target="4EAk3vtJ96HyGKtx9xcT-3">
          <mxGeometry relative="1" as="geometry">
            <Array as="points">
              <mxPoint x="207.25" y="620" />
              <mxPoint x="105.25" y="620" />
              <mxPoint x="105.25" y="180" />
              <mxPoint x="207.25" y="180" />
            </Array>
          </mxGeometry>
        </mxCell>
        <mxCell id="TRfHkV0xAQpSszj1zVbH-40" value="" style="edgeStyle=orthogonalEdgeStyle;rounded=0;orthogonalLoop=1;jettySize=auto;html=1;" edge="1" parent="WIyWlLk6GJQsqaUBKTNV-1" source="TRfHkV0xAQpSszj1zVbH-41" target="TRfHkV0xAQpSszj1zVbH-46">
          <mxGeometry relative="1" as="geometry" />
        </mxCell>
        <mxCell id="TRfHkV0xAQpSszj1zVbH-41" value="Opdater hjemmeside,&lt;div&gt;graf over beholderniveau&lt;/div&gt;" style="verticalLabelPosition=bottom;verticalAlign=top;html=1;shape=process;whiteSpace=wrap;rounded=1;size=0.14;arcSize=6;align=center;spacingTop=-56;labelBackgroundColor=none;fillColor=#A8DADC;strokeColor=#457B9D;fontColor=#1D3557;" vertex="1" parent="WIyWlLk6GJQsqaUBKTNV-1">
          <mxGeometry x="331" y="437.44" width="165" height="60" as="geometry" />
        </mxCell>
        <mxCell id="TRfHkV0xAQpSszj1zVbH-42" value="" style="edgeStyle=orthogonalEdgeStyle;rounded=0;orthogonalLoop=1;jettySize=auto;html=1;" edge="1" parent="WIyWlLk6GJQsqaUBKTNV-1" source="TRfHkV0xAQpSszj1zVbH-43" target="TRfHkV0xAQpSszj1zVbH-45">
          <mxGeometry relative="1" as="geometry" />
        </mxCell>
        <mxCell id="TRfHkV0xAQpSszj1zVbH-43" value="C" style="verticalLabelPosition=bottom;verticalAlign=top;html=1;shape=mxgraph.flowchart.on-page_reference;dashed=1;dashPattern=1 4;spacingTop=-32;spacingLeft=-2;labelBackgroundColor=none;fillColor=#A8DADC;strokeColor=#457B9D;fontColor=#1D3557;" vertex="1" parent="WIyWlLk6GJQsqaUBKTNV-1">
          <mxGeometry x="396" y="219.94000000000005" width="35" height="35" as="geometry" />
        </mxCell>
        <mxCell id="TRfHkV0xAQpSszj1zVbH-44" value="" style="edgeStyle=orthogonalEdgeStyle;rounded=0;orthogonalLoop=1;jettySize=auto;html=1;" edge="1" parent="WIyWlLk6GJQsqaUBKTNV-1" source="TRfHkV0xAQpSszj1zVbH-45" target="TRfHkV0xAQpSszj1zVbH-41">
          <mxGeometry relative="1" as="geometry" />
        </mxCell>
        <mxCell id="TRfHkV0xAQpSszj1zVbH-45" value="SocketIO On&lt;div&gt;&quot;Affaldsniveau&lt;/div&gt;&lt;div&gt;type 1&quot;&lt;/div&gt;" style="verticalLabelPosition=bottom;verticalAlign=top;html=1;shape=process;whiteSpace=wrap;rounded=1;size=0.14;arcSize=6;align=center;spacingTop=-50;labelBackgroundColor=none;fillColor=#A8DADC;strokeColor=#457B9D;fontColor=#1D3557;" vertex="1" parent="WIyWlLk6GJQsqaUBKTNV-1">
          <mxGeometry x="348.5" y="317.44" width="130" height="60" as="geometry" />
        </mxCell>
        <mxCell id="TRfHkV0xAQpSszj1zVbH-46" value="Afvent SocketIO On" style="verticalLabelPosition=bottom;verticalAlign=top;html=1;shape=process;whiteSpace=wrap;rounded=1;size=0.14;arcSize=6;align=center;spacingTop=-43;strokeColor=#457B9D;dashed=1;dashPattern=1 4;labelBackgroundColor=none;fillColor=#A8DADC;fontColor=#1D3557;" vertex="1" parent="WIyWlLk6GJQsqaUBKTNV-1">
          <mxGeometry x="331" y="547.4399999999999" width="165" height="60" as="geometry" />
        </mxCell>
        <mxCell id="TRfHkV0xAQpSszj1zVbH-47" style="edgeStyle=orthogonalEdgeStyle;rounded=0;orthogonalLoop=1;jettySize=auto;html=1;exitX=0.5;exitY=1;exitDx=0;exitDy=0;entryX=0.5;entryY=0;entryDx=0;entryDy=0;entryPerimeter=0;" edge="1" parent="WIyWlLk6GJQsqaUBKTNV-1" source="TRfHkV0xAQpSszj1zVbH-46" target="TRfHkV0xAQpSszj1zVbH-43">
          <mxGeometry relative="1" as="geometry">
            <Array as="points">
              <mxPoint x="414" y="626.9399999999999" />
              <mxPoint x="311" y="626.9399999999999" />
              <mxPoint x="311" y="400.94" />
              <mxPoint x="312" y="400.94" />
              <mxPoint x="312" y="199.94" />
              <mxPoint x="414" y="199.94" />
            </Array>
          </mxGeometry>
        </mxCell>
        <mxCell id="TRfHkV0xAQpSszj1zVbH-48" style="edgeStyle=orthogonalEdgeStyle;rounded=0;orthogonalLoop=1;jettySize=auto;html=1;exitX=0.5;exitY=1;exitDx=0;exitDy=0;entryX=0.5;entryY=0;entryDx=0;entryDy=0;entryPerimeter=0;" edge="1" parent="WIyWlLk6GJQsqaUBKTNV-1" source="I90foCp7rMowlihPEcc8-3" target="TRfHkV0xAQpSszj1zVbH-43">
          <mxGeometry relative="1" as="geometry" />
        </mxCell>
        <mxCell id="TRfHkV0xAQpSszj1zVbH-51" style="edgeStyle=orthogonalEdgeStyle;rounded=0;orthogonalLoop=1;jettySize=auto;html=1;exitX=0.25;exitY=1;exitDx=0;exitDy=0;entryX=0.5;entryY=0;entryDx=0;entryDy=0;entryPerimeter=0;" edge="1" parent="WIyWlLk6GJQsqaUBKTNV-1" source="I90foCp7rMowlihPEcc8-3" target="4EAk3vtJ96HyGKtx9xcT-3">
          <mxGeometry relative="1" as="geometry">
            <Array as="points">
              <mxPoint x="381" y="180" />
              <mxPoint x="207" y="180" />
            </Array>
          </mxGeometry>
        </mxCell>
        <mxCell id="TRfHkV0xAQpSszj1zVbH-52" value="" style="edgeStyle=orthogonalEdgeStyle;rounded=0;orthogonalLoop=1;jettySize=auto;html=1;" edge="1" parent="WIyWlLk6GJQsqaUBKTNV-1" source="TRfHkV0xAQpSszj1zVbH-53" target="TRfHkV0xAQpSszj1zVbH-58">
          <mxGeometry relative="1" as="geometry" />
        </mxCell>
        <mxCell id="TRfHkV0xAQpSszj1zVbH-53" value="Opdater hjemmeside,&lt;div&gt;graf over beholderniveau&lt;/div&gt;" style="verticalLabelPosition=bottom;verticalAlign=top;html=1;shape=process;whiteSpace=wrap;rounded=1;size=0.14;arcSize=6;align=center;spacingTop=-56;labelBackgroundColor=none;fillColor=#A8DADC;strokeColor=#457B9D;fontColor=#1D3557;" vertex="1" parent="WIyWlLk6GJQsqaUBKTNV-1">
          <mxGeometry x="540" y="437.48" width="165" height="60" as="geometry" />
        </mxCell>
        <mxCell id="TRfHkV0xAQpSszj1zVbH-54" value="" style="edgeStyle=orthogonalEdgeStyle;rounded=0;orthogonalLoop=1;jettySize=auto;html=1;" edge="1" parent="WIyWlLk6GJQsqaUBKTNV-1" source="TRfHkV0xAQpSszj1zVbH-55" target="TRfHkV0xAQpSszj1zVbH-57">
          <mxGeometry relative="1" as="geometry" />
        </mxCell>
        <mxCell id="TRfHkV0xAQpSszj1zVbH-55" value="D" style="verticalLabelPosition=bottom;verticalAlign=top;html=1;shape=mxgraph.flowchart.on-page_reference;dashed=1;dashPattern=1 4;spacingTop=-32;spacingLeft=-2;labelBackgroundColor=none;fillColor=#A8DADC;strokeColor=#457B9D;fontColor=#1D3557;" vertex="1" parent="WIyWlLk6GJQsqaUBKTNV-1">
          <mxGeometry x="605" y="219.98000000000005" width="35" height="35" as="geometry" />
        </mxCell>
        <mxCell id="TRfHkV0xAQpSszj1zVbH-56" value="" style="edgeStyle=orthogonalEdgeStyle;rounded=0;orthogonalLoop=1;jettySize=auto;html=1;" edge="1" parent="WIyWlLk6GJQsqaUBKTNV-1" source="TRfHkV0xAQpSszj1zVbH-57" target="TRfHkV0xAQpSszj1zVbH-53">
          <mxGeometry relative="1" as="geometry" />
        </mxCell>
        <mxCell id="TRfHkV0xAQpSszj1zVbH-57" value="SocketIO On&lt;div&gt;&quot;Affaldsniveau&lt;/div&gt;&lt;div&gt;type 2&quot;&lt;/div&gt;" style="verticalLabelPosition=bottom;verticalAlign=top;html=1;shape=process;whiteSpace=wrap;rounded=1;size=0.14;arcSize=6;align=center;spacingTop=-50;labelBackgroundColor=none;fillColor=#A8DADC;strokeColor=#457B9D;fontColor=#1D3557;" vertex="1" parent="WIyWlLk6GJQsqaUBKTNV-1">
          <mxGeometry x="557.5" y="317.48" width="130" height="60" as="geometry" />
        </mxCell>
        <mxCell id="TRfHkV0xAQpSszj1zVbH-58" value="Afvent SocketIO On" style="verticalLabelPosition=bottom;verticalAlign=top;html=1;shape=process;whiteSpace=wrap;rounded=1;size=0.14;arcSize=6;align=center;spacingTop=-43;strokeColor=#457B9D;dashed=1;dashPattern=1 4;labelBackgroundColor=none;fillColor=#A8DADC;fontColor=#1D3557;" vertex="1" parent="WIyWlLk6GJQsqaUBKTNV-1">
          <mxGeometry x="540" y="547.4799999999999" width="165" height="60" as="geometry" />
        </mxCell>
        <mxCell id="TRfHkV0xAQpSszj1zVbH-59" style="edgeStyle=orthogonalEdgeStyle;rounded=0;orthogonalLoop=1;jettySize=auto;html=1;exitX=0.5;exitY=1;exitDx=0;exitDy=0;entryX=0.5;entryY=0;entryDx=0;entryDy=0;entryPerimeter=0;" edge="1" parent="WIyWlLk6GJQsqaUBKTNV-1" source="TRfHkV0xAQpSszj1zVbH-58" target="TRfHkV0xAQpSszj1zVbH-55">
          <mxGeometry relative="1" as="geometry">
            <Array as="points">
              <mxPoint x="623" y="626.9799999999999" />
              <mxPoint x="520" y="626.9799999999999" />
              <mxPoint x="520" y="400.98" />
              <mxPoint x="521" y="400.98" />
              <mxPoint x="521" y="199.98" />
              <mxPoint x="623" y="199.98" />
            </Array>
          </mxGeometry>
        </mxCell>
        <mxCell id="TRfHkV0xAQpSszj1zVbH-60" value="" style="edgeStyle=orthogonalEdgeStyle;rounded=0;orthogonalLoop=1;jettySize=auto;html=1;" edge="1" parent="WIyWlLk6GJQsqaUBKTNV-1" source="TRfHkV0xAQpSszj1zVbH-61" target="TRfHkV0xAQpSszj1zVbH-66">
          <mxGeometry relative="1" as="geometry" />
        </mxCell>
        <mxCell id="TRfHkV0xAQpSszj1zVbH-61" value="Opdater hjemmeside,&lt;div&gt;graf over beholderniveau&lt;/div&gt;" style="verticalLabelPosition=bottom;verticalAlign=top;html=1;shape=process;whiteSpace=wrap;rounded=1;size=0.14;arcSize=6;align=center;spacingTop=-56;labelBackgroundColor=none;fillColor=#A8DADC;strokeColor=#457B9D;fontColor=#1D3557;" vertex="1" parent="WIyWlLk6GJQsqaUBKTNV-1">
          <mxGeometry x="750" y="437.48" width="165" height="60" as="geometry" />
        </mxCell>
        <mxCell id="TRfHkV0xAQpSszj1zVbH-62" value="" style="edgeStyle=orthogonalEdgeStyle;rounded=0;orthogonalLoop=1;jettySize=auto;html=1;" edge="1" parent="WIyWlLk6GJQsqaUBKTNV-1" source="TRfHkV0xAQpSszj1zVbH-63" target="TRfHkV0xAQpSszj1zVbH-65">
          <mxGeometry relative="1" as="geometry" />
        </mxCell>
        <mxCell id="TRfHkV0xAQpSszj1zVbH-63" value="E" style="verticalLabelPosition=bottom;verticalAlign=top;html=1;shape=mxgraph.flowchart.on-page_reference;dashed=1;dashPattern=1 4;spacingTop=-32;spacingLeft=-2;labelBackgroundColor=none;fillColor=#A8DADC;strokeColor=#457B9D;fontColor=#1D3557;" vertex="1" parent="WIyWlLk6GJQsqaUBKTNV-1">
          <mxGeometry x="815" y="219.98000000000005" width="35" height="35" as="geometry" />
        </mxCell>
        <mxCell id="TRfHkV0xAQpSszj1zVbH-64" value="" style="edgeStyle=orthogonalEdgeStyle;rounded=0;orthogonalLoop=1;jettySize=auto;html=1;" edge="1" parent="WIyWlLk6GJQsqaUBKTNV-1" source="TRfHkV0xAQpSszj1zVbH-65" target="TRfHkV0xAQpSszj1zVbH-61">
          <mxGeometry relative="1" as="geometry" />
        </mxCell>
        <mxCell id="TRfHkV0xAQpSszj1zVbH-65" value="SocketIO On&lt;div&gt;&quot;Affaldsniveau&lt;/div&gt;&lt;div&gt;type 3&quot;&lt;/div&gt;" style="verticalLabelPosition=bottom;verticalAlign=top;html=1;shape=process;whiteSpace=wrap;rounded=1;size=0.14;arcSize=6;align=center;spacingTop=-50;labelBackgroundColor=none;fillColor=#A8DADC;strokeColor=#457B9D;fontColor=#1D3557;" vertex="1" parent="WIyWlLk6GJQsqaUBKTNV-1">
          <mxGeometry x="767.5" y="317.48" width="130" height="60" as="geometry" />
        </mxCell>
        <mxCell id="TRfHkV0xAQpSszj1zVbH-66" value="Afvent SocketIO On" style="verticalLabelPosition=bottom;verticalAlign=top;html=1;shape=process;whiteSpace=wrap;rounded=1;size=0.14;arcSize=6;align=center;spacingTop=-43;strokeColor=#457B9D;dashed=1;dashPattern=1 4;labelBackgroundColor=none;fillColor=#A8DADC;fontColor=#1D3557;" vertex="1" parent="WIyWlLk6GJQsqaUBKTNV-1">
          <mxGeometry x="750" y="547.4799999999999" width="165" height="60" as="geometry" />
        </mxCell>
        <mxCell id="TRfHkV0xAQpSszj1zVbH-67" style="edgeStyle=orthogonalEdgeStyle;rounded=0;orthogonalLoop=1;jettySize=auto;html=1;exitX=0.5;exitY=1;exitDx=0;exitDy=0;entryX=0.5;entryY=0;entryDx=0;entryDy=0;entryPerimeter=0;" edge="1" parent="WIyWlLk6GJQsqaUBKTNV-1" source="TRfHkV0xAQpSszj1zVbH-66" target="TRfHkV0xAQpSszj1zVbH-63">
          <mxGeometry relative="1" as="geometry">
            <Array as="points">
              <mxPoint x="833" y="627" />
              <mxPoint x="730" y="627" />
              <mxPoint x="730" y="401" />
              <mxPoint x="731" y="401" />
              <mxPoint x="731" y="180" />
              <mxPoint x="833" y="180" />
            </Array>
          </mxGeometry>
        </mxCell>
        <mxCell id="TRfHkV0xAQpSszj1zVbH-68" style="edgeStyle=orthogonalEdgeStyle;rounded=0;orthogonalLoop=1;jettySize=auto;html=1;exitX=0.75;exitY=1;exitDx=0;exitDy=0;entryX=0.5;entryY=0;entryDx=0;entryDy=0;entryPerimeter=0;" edge="1" parent="WIyWlLk6GJQsqaUBKTNV-1" source="I90foCp7rMowlihPEcc8-3" target="TRfHkV0xAQpSszj1zVbH-55">
          <mxGeometry relative="1" as="geometry">
            <Array as="points">
              <mxPoint x="447" y="200" />
              <mxPoint x="623" y="200" />
            </Array>
          </mxGeometry>
        </mxCell>
        <mxCell id="TRfHkV0xAQpSszj1zVbH-69" style="edgeStyle=orthogonalEdgeStyle;rounded=0;orthogonalLoop=1;jettySize=auto;html=1;exitX=1;exitY=1;exitDx=0;exitDy=0;entryX=0.5;entryY=0;entryDx=0;entryDy=0;entryPerimeter=0;" edge="1" parent="WIyWlLk6GJQsqaUBKTNV-1" source="I90foCp7rMowlihPEcc8-3" target="TRfHkV0xAQpSszj1zVbH-63">
          <mxGeometry relative="1" as="geometry">
            <Array as="points">
              <mxPoint x="479" y="180" />
              <mxPoint x="833" y="180" />
            </Array>
          </mxGeometry>
        </mxCell>
      </root>
    </mxGraphModel>
  </diagram>
</mxfile>
